<mxfile host="app.diagrams.net" agent="Mozilla/5.0 (Windows NT 10.0; Win64; x64) AppleWebKit/537.36 (KHTML, like Gecko) Chrome/131.0.0.0 Safari/537.36" version="25.0.3">
  <diagram name="Page-1" id="uELYvXB1IXQBkSXVAX2X">
    <mxGraphModel dx="939" dy="514" grid="0" gridSize="10" guides="1" tooltips="1" connect="1" arrows="1" fold="1" page="0" pageScale="1" pageWidth="827" pageHeight="1169" math="0" shadow="0">
      <root>
        <mxCell id="0" />
        <mxCell id="1" parent="0" />
        <mxCell id="Hnvg7fxV-oiBf4Ms5yEK-1" style="edgeStyle=orthogonalEdgeStyle;rounded=0;orthogonalLoop=1;jettySize=auto;html=1;entryX=0.5;entryY=0;entryDx=0;entryDy=0;" parent="1" source="Hnvg7fxV-oiBf4Ms5yEK-2" target="Hnvg7fxV-oiBf4Ms5yEK-5" edge="1">
          <mxGeometry relative="1" as="geometry" />
        </mxCell>
        <mxCell id="Hnvg7fxV-oiBf4Ms5yEK-2" value="S0" style="ellipse;whiteSpace=wrap;html=1;aspect=fixed;" parent="1" vertex="1">
          <mxGeometry x="270" y="170" width="90" height="90" as="geometry" />
        </mxCell>
        <mxCell id="Hnvg7fxV-oiBf4Ms5yEK-3" style="edgeStyle=orthogonalEdgeStyle;rounded=0;orthogonalLoop=1;jettySize=auto;html=1;entryX=0.5;entryY=0;entryDx=0;entryDy=0;" parent="1" source="Hnvg7fxV-oiBf4Ms5yEK-5" target="Hnvg7fxV-oiBf4Ms5yEK-9" edge="1">
          <mxGeometry relative="1" as="geometry" />
        </mxCell>
        <mxCell id="Hnvg7fxV-oiBf4Ms5yEK-4" style="edgeStyle=orthogonalEdgeStyle;shape=connector;curved=1;rounded=0;orthogonalLoop=1;jettySize=auto;html=1;strokeColor=default;align=center;verticalAlign=middle;fontFamily=Helvetica;fontSize=11;fontColor=default;labelBackgroundColor=default;endArrow=classic;entryX=0;entryY=0;entryDx=0;entryDy=0;" parent="1" source="Hnvg7fxV-oiBf4Ms5yEK-5" target="Hnvg7fxV-oiBf4Ms5yEK-5" edge="1">
          <mxGeometry relative="1" as="geometry">
            <mxPoint x="268" y="332" as="targetPoint" />
            <Array as="points">
              <mxPoint x="214" y="364" />
              <mxPoint x="214" y="305" />
              <mxPoint x="283" y="305" />
            </Array>
          </mxGeometry>
        </mxCell>
        <mxCell id="Hnvg7fxV-oiBf4Ms5yEK-5" value="S1" style="ellipse;whiteSpace=wrap;html=1;aspect=fixed;" parent="1" vertex="1">
          <mxGeometry x="270" y="320" width="90" height="90" as="geometry" />
        </mxCell>
        <mxCell id="Hnvg7fxV-oiBf4Ms5yEK-6" style="edgeStyle=orthogonalEdgeStyle;rounded=0;orthogonalLoop=1;jettySize=auto;html=1;strokeColor=none;curved=1;entryX=0;entryY=1;entryDx=0;entryDy=0;" parent="1" source="Hnvg7fxV-oiBf4Ms5yEK-9" target="Hnvg7fxV-oiBf4Ms5yEK-5" edge="1">
          <mxGeometry relative="1" as="geometry">
            <mxPoint x="204.66668701171875" y="412.00006103515625" as="targetPoint" />
          </mxGeometry>
        </mxCell>
        <mxCell id="Hnvg7fxV-oiBf4Ms5yEK-7" style="edgeStyle=orthogonalEdgeStyle;shape=connector;curved=1;rounded=0;orthogonalLoop=1;jettySize=auto;html=1;entryX=1;entryY=0.5;entryDx=0;entryDy=0;strokeColor=default;align=center;verticalAlign=middle;fontFamily=Helvetica;fontSize=11;fontColor=default;labelBackgroundColor=default;endArrow=classic;" parent="1" source="Hnvg7fxV-oiBf4Ms5yEK-9" target="Hnvg7fxV-oiBf4Ms5yEK-5" edge="1">
          <mxGeometry relative="1" as="geometry">
            <Array as="points">
              <mxPoint x="429" y="525" />
              <mxPoint x="429" y="365" />
            </Array>
          </mxGeometry>
        </mxCell>
        <mxCell id="Hnvg7fxV-oiBf4Ms5yEK-8" style="edgeStyle=orthogonalEdgeStyle;shape=connector;curved=1;rounded=0;orthogonalLoop=1;jettySize=auto;html=1;entryX=0;entryY=0.5;entryDx=0;entryDy=0;strokeColor=default;align=center;verticalAlign=middle;fontFamily=Helvetica;fontSize=11;fontColor=default;labelBackgroundColor=default;endArrow=classic;" parent="1" source="Hnvg7fxV-oiBf4Ms5yEK-9" target="Hnvg7fxV-oiBf4Ms5yEK-2" edge="1">
          <mxGeometry relative="1" as="geometry">
            <Array as="points">
              <mxPoint x="159" y="525" />
              <mxPoint x="159" y="215" />
            </Array>
          </mxGeometry>
        </mxCell>
        <mxCell id="Hnvg7fxV-oiBf4Ms5yEK-9" value="S2" style="ellipse;whiteSpace=wrap;html=1;aspect=fixed;" parent="1" vertex="1">
          <mxGeometry x="270" y="480" width="90" height="90" as="geometry" />
        </mxCell>
        <mxCell id="Hnvg7fxV-oiBf4Ms5yEK-10" style="edgeStyle=orthogonalEdgeStyle;rounded=0;orthogonalLoop=1;jettySize=auto;html=1;entryX=1.008;entryY=0.441;entryDx=0;entryDy=0;curved=1;entryPerimeter=0;exitX=0.5;exitY=0;exitDx=0;exitDy=0;" parent="1" source="Hnvg7fxV-oiBf4Ms5yEK-2" target="Hnvg7fxV-oiBf4Ms5yEK-2" edge="1">
          <mxGeometry relative="1" as="geometry">
            <mxPoint x="330" y="170.27864045000422" as="sourcePoint" />
            <mxPoint x="369.999999999999" y="215" as="targetPoint" />
            <Array as="points">
              <mxPoint x="315" y="150" />
              <mxPoint x="400" y="150" />
              <mxPoint x="400" y="210" />
            </Array>
          </mxGeometry>
        </mxCell>
        <mxCell id="Hnvg7fxV-oiBf4Ms5yEK-11" value="1/0" style="edgeLabel;html=1;align=center;verticalAlign=middle;resizable=0;points=[];" parent="Hnvg7fxV-oiBf4Ms5yEK-10" vertex="1" connectable="0">
          <mxGeometry x="-0.1125" y="-7" relative="1" as="geometry">
            <mxPoint x="-8" y="-19" as="offset" />
          </mxGeometry>
        </mxCell>
        <mxCell id="Hnvg7fxV-oiBf4Ms5yEK-12" value="0/0" style="edgeLabel;html=1;align=center;verticalAlign=middle;resizable=0;points=[];" parent="1" vertex="1" connectable="0">
          <mxGeometry x="327.0000000000001" y="262.9999999999999" as="geometry">
            <mxPoint y="25" as="offset" />
          </mxGeometry>
        </mxCell>
        <mxCell id="Hnvg7fxV-oiBf4Ms5yEK-13" value="1/0" style="edgeLabel;html=1;align=center;verticalAlign=middle;resizable=0;points=[];" parent="1" vertex="1" connectable="0">
          <mxGeometry x="327.0000000000001" y="440.9999999999999" as="geometry">
            <mxPoint as="offset" />
          </mxGeometry>
        </mxCell>
        <mxCell id="Hnvg7fxV-oiBf4Ms5yEK-14" value="&lt;div style=&quot;text-align: center;&quot;&gt;&lt;span style=&quot;background-color: initial; font-size: 11px; text-wrap-mode: nowrap;&quot;&gt;0/0&lt;/span&gt;&lt;/div&gt;" style="text;whiteSpace=wrap;html=1;" parent="1" vertex="1">
          <mxGeometry x="438" y="430" width="17" height="30" as="geometry" />
        </mxCell>
        <mxCell id="Hnvg7fxV-oiBf4Ms5yEK-15" value="&lt;div style=&quot;text-align: left;&quot;&gt;0/0&lt;/div&gt;" style="edgeLabel;html=1;align=center;verticalAlign=middle;resizable=0;points=[];" parent="1" vertex="1" connectable="0">
          <mxGeometry x="205.0000000000001" y="312.9999999999999" as="geometry">
            <mxPoint x="-2" y="13" as="offset" />
          </mxGeometry>
        </mxCell>
        <mxCell id="Hnvg7fxV-oiBf4Ms5yEK-16" value="&lt;div style=&quot;text-align: center;&quot;&gt;&lt;span style=&quot;background-color: initial; font-size: 11px; text-wrap-mode: nowrap;&quot;&gt;1/1&lt;/span&gt;&lt;/div&gt;" style="text;whiteSpace=wrap;html=1;" parent="1" vertex="1">
          <mxGeometry x="137" y="350" width="17" height="30" as="geometry" />
        </mxCell>
        <mxCell id="bLtpwxOem_IyKtXgWwph-2" style="edgeStyle=none;curved=1;rounded=0;orthogonalLoop=1;jettySize=auto;html=1;entryX=0;entryY=0;entryDx=0;entryDy=0;fontSize=12;startSize=8;endSize=8;" edge="1" parent="1" source="bLtpwxOem_IyKtXgWwph-1" target="Hnvg7fxV-oiBf4Ms5yEK-2">
          <mxGeometry relative="1" as="geometry" />
        </mxCell>
        <mxCell id="bLtpwxOem_IyKtXgWwph-1" value="Reset" style="text;html=1;align=center;verticalAlign=middle;resizable=0;points=[];autosize=1;strokeColor=none;fillColor=none;fontSize=16;" vertex="1" parent="1">
          <mxGeometry x="186" y="130" width="60" height="31" as="geometry" />
        </mxCell>
      </root>
    </mxGraphModel>
  </diagram>
</mxfile>
